<svg xmlns="http://www.w3.org/2000/svg" width="35" height="35" fill="none">
	<rect width="35" height="35" fill="#222432" rx="10" />
	<path fill="#428FD0" d="M3.88 25V11h2.14l6.12 10.22h-1.12L17.04 11h2.14l.02 14h-2.46l-.02-10.14h.52l-5.12 8.54h-1.16l-5.2-8.54h.6V25H3.88Z" />
	<path fill="#fff" d="M22.142 25.14c-.454 0-.84-.153-1.16-.46-.32-.32-.48-.72-.48-1.2 0-.507.16-.907.48-1.2.32-.307.706-.46 1.16-.46.453 0 .84.153 1.16.46.32.293.48.693.48 1.2 0 .48-.16.88-.48 1.2-.32.307-.707.46-1.16.46Zm6.605 0c-1.174 0-2.08-.3-2.72-.9-.64-.613-.96-1.513-.96-2.7v-9.58h2.5v9.52c0 .507.126.9.38 1.18.266.28.633.42 1.1.42.56 0 1.026-.147 1.4-.44l.7 1.78c-.294.24-.654.42-1.08.54-.427.12-.867.18-1.32.18Zm-5.44-8.74v-2h7.12v2h-7.12Z" />
</svg>
